<?xml version="1.0" encoding="utf-8"?>
<!-- Generator: Adobe Illustrator 27.2.0, SVG Export Plug-In . SVG Version: 6.00 Build 0)  -->
<svg version="1.1" xmlns="http://www.w3.org/2000/svg" xmlns:xlink="http://www.w3.org/1999/xlink" x="0px" y="0px"
	 viewBox="0 0 432 144" style="enable-background:new 0 0 432 144;" xml:space="preserve">
<g id="Layer_1">
	<g>
		<path d="M215.98,108.46c-14.97-0.34-29.95-0.53-44.91-1.07c-11.79-0.43-23.57-1.18-35.34-1.99c-9.34-0.64-18.68-1.43-27.99-2.42
			c-19.73-2.1-39.38-4.8-58.72-9.32c-10.29-2.4-20.48-5.15-30.02-9.86c-3.24-1.6-6.32-3.45-8.82-6.13
			c-3.48-3.73-3.48-7.84,0.04-11.55c3.36-3.54,7.62-5.69,12-7.6c9.32-4.07,19.11-6.64,29-8.86c12.55-2.82,25.23-4.99,38-6.55
			c10.15-1.24,20.31-2.5,30.5-3.35c14.05-1.17,28.11-2.13,42.19-2.88c25.19-1.34,50.41-1.63,75.63-1.08
			c9.98,0.22,19.96,0.42,29.93,0.89c10.75,0.5,21.48,1.22,32.21,1.99c8.13,0.59,16.26,1.27,24.36,2.15
			c21.97,2.37,43.84,5.38,65.28,10.91c8.68,2.24,17.29,4.78,25.19,9.14c2.51,1.39,4.93,3.12,7.01,5.09c3.92,3.72,3.84,8,0.1,11.88
			c-3.35,3.48-7.58,5.59-11.92,7.49c-9.28,4.05-19.03,6.61-28.87,8.82c-12.55,2.83-25.23,4.98-37.99,6.56
			c-9.68,1.19-19.36,2.35-29.06,3.3c-8.29,0.81-16.6,1.35-24.91,1.92C264.59,107.6,240.3,108.22,215.98,108.46z M214.69,36.64
			c-10.85,0.3-23.04,0.54-35.23,1.02c-9.06,0.36-18.12,0.86-27.15,1.64c-10.23,0.89-20.44,2.07-30.63,3.29
			c-12.34,1.48-24.57,3.66-36.67,6.55c-9.22,2.2-18.33,4.8-26.96,8.83c-4.06,1.9-7.96,4.07-11.09,7.37c-4,4.21-4.13,9.09,0.06,13.09
			c2.35,2.25,5.09,4.21,7.94,5.79c7.8,4.35,16.32,6.9,24.91,9.16c18.39,4.82,37.14,7.61,56.01,9.6c9.74,1.03,19.52,1.84,29.3,2.41
			c11.82,0.69,23.66,1.25,35.5,1.47c17.32,0.33,34.64,0.27,51.94-0.69c10.09-0.56,20.19-1.03,30.26-1.93
			c10.44-0.93,20.85-2.23,31.25-3.55c12.16-1.54,24.2-3.81,36.08-6.83c8.81-2.24,17.51-4.85,25.66-9c3.45-1.76,6.74-3.77,9.38-6.67
			c3.64-4.01,3.68-8.61-0.02-12.56c-1.29-1.38-2.78-2.63-4.34-3.71c-4.91-3.41-10.41-5.66-16.02-7.6
			c-16.94-5.85-34.47-9.04-52.16-11.42c-10.52-1.41-21.09-2.52-31.66-3.43c-10.46-0.9-20.94-1.56-31.43-2
			C238.44,37.01,227.24,36.92,214.69,36.64z"/>
		<path d="M257.9,60.31c5.03,0,10.07,0.01,15.1,0c3.89-0.01,6.83,1.63,8.41,5.19c1.56,3.49,0.94,6.78-1.61,9.64
			c-3.98,4.47-7.97,8.93-12,13.36c-1.84,2.03-4.87,2.38-7.12,0.95c-2.29-1.45-3.26-4.25-2.25-6.82c1.67-4.22,3.44-8.4,5.11-12.62
			c1.02-2.55-0.09-5.27-2.65-5.79c-1.9-0.38-3.96-0.25-5.91-0.01c-0.85,0.11-1.73,0.95-2.35,1.68c-1.68,1.99-3.2,4.1-4.81,6.14
			c-1.99,2.54-4.64,3.51-7.73,2.76c-3.1-0.76-4.93-2.9-5.52-6.06c-0.77-4.13,2.78-8.35,7.18-8.4c5.38-0.06,10.76-0.01,16.14-0.01
			C257.9,60.32,257.9,60.32,257.9,60.31z"/>
		<path d="M83.73,65.52c3.78,0,7.55,0,11.33,0c1.4,0,2.28,0.65,2.37,1.69c0.08,1.05-0.66,1.73-2.11,1.98
			c-3.63,0.63-6.99,1.95-10.11,3.9c-0.83,0.52-1.28,1.18-1.04,2.15c0.24,1.01,1.01,1.34,1.97,1.34c5.17,0,10.33,0.03,15.5-0.01
			c2.21-0.02,3.11-1.85,1.88-3.7c-1.22-1.83-2.34-3.66-1.63-6.03c0.72-2.4,2.89-4.28,5.22-4.46c2.84-0.21,5.27,0.98,6.26,3.47
			c1.64,4.14,3.12,8.35,4.56,12.56c0.56,1.64-0.31,3.46-1.8,4.37c-1.52,0.92-3.6,0.85-4.8-0.49c-1.52-1.7-3.34-2.09-5.48-2.08
			c-10.72,0.04-21.45,0-32.17,0.03c-2.8,0.01-5.23-0.75-6.95-3.08c-1.73-2.34-1.97-4.9-0.72-7.48c1.27-2.63,3.45-4.1,6.41-4.15
			C76.17,65.48,79.95,65.53,83.73,65.52z"/>
		<path d="M327.02,57.73c4.75-0.04,8.26,4.22,7.35,8.52c-0.34,1.62-0.13,1.89,1.6,1.89c7.68,0,15.37-0.01,23.05,0.01
			c3.89,0.01,7.02,2.65,7.58,6.33c0.49,3.25-1.22,6.39-4.23,7.75c-3.01,1.36-6.53,0.61-8.62-1.92c-1.63-1.97-3.21-3.99-4.71-6.06
			c-1.28-1.77-2.88-2.59-5.1-2.5c-2.69,0.11-5.39,0.1-8.07,0.01c-2.35-0.08-3.8,0.86-4.7,3.06c-1.53,3.74-4.86,5.6-9.08,5.31
			c-3.39-0.23-6.56-2.93-7.48-6.47c-0.75-2.92-0.24-5.66,1.8-7.89c2.02-2.21,4.21-4.26,6.4-6.31
			C324.06,58.29,325.64,57.8,327.02,57.73z"/>
		<path d="M140.3,80.15c-3.99,0-7.99,0.06-11.98-0.02c-2.97-0.06-5.7-2.25-6.61-5.06c-1.06-3.26,0.37-6.93,3.37-8.63
			c3.04-1.73,6.99-1.09,9.22,1.59c1.61,1.93,3.17,3.91,4.63,5.96c1.3,1.82,2.88,2.71,5.17,2.59c2.73-0.14,5.47-0.1,8.2-0.01
			c2.3,0.08,3.71-0.85,4.58-3.01c1.63-4.03,5.81-6.09,10.1-5.16c4.01,0.87,6.91,4.62,6.78,8.85c-0.06,2.21-0.86,4.16-2.42,5.73
			c-1.86,1.88-3.74,3.75-5.67,5.57c-2.41,2.27-5.68,2.7-8.41,1.19c-2.7-1.49-4.1-4.56-3.54-7.74c0.27-1.53,0.04-1.8-1.57-1.8
			c-3.95-0.01-7.9,0-11.85,0C140.3,80.17,140.3,80.16,140.3,80.15z"/>
		<path d="M202.79,82.94c-5.94,0-11.89,0.01-17.83-0.01c-3.64-0.01-6.41-1.87-7.49-4.96c-1.17-3.36,0.23-7.1,3.33-8.86
			c3.21-1.82,7.08-1.06,9.46,1.9c1.6,2,3.18,4.01,4.7,6.07c1.12,1.53,2.56,2.25,4.44,2.22c2.43-0.03,4.86,0.07,7.29-0.05
			c0.76-0.04,1.68-0.43,2.21-0.97c0.72-0.75,0.15-1.63-0.39-2.34c-0.91-1.19-1.17-2.51-0.73-3.92c0.7-2.2,3.3-3.39,5.39-2.3
			c3.57,1.86,7.08,3.84,10.55,5.87c1.42,0.83,2.04,2.24,1.8,3.9c-0.27,1.78-1.44,2.95-3.21,3.3c-0.55,0.11-1.12,0.14-1.68,0.14
			C214.68,82.94,208.73,82.94,202.79,82.94z"/>
		<path d="M205.38,58.76c6.16,0,12.33-0.02,18.49,0.01c3.53,0.02,6.78,2.83,7.21,6.14c0.51,3.87-1.55,7.16-5.17,8.26
			c-2.81,0.85-5.88-0.04-7.74-2.35c-1.61-1.99-3.2-4-4.71-6.06c-1.23-1.68-2.75-2.49-4.88-2.39c-2.38,0.11-4.78-0.05-7.16,0.07
			c-0.72,0.03-1.58,0.43-2.07,0.94c-0.67,0.71-0.19,1.56,0.35,2.23c1.91,2.36,0.91,5.87-1.88,6.48c-0.94,0.2-2.14,0.12-2.98-0.31
			c-3.43-1.76-6.77-3.68-10.12-5.59c-1.7-0.98-2.37-2.75-1.86-4.56c0.51-1.79,1.99-2.86,4.01-2.86
			C193.05,58.75,199.22,58.76,205.38,58.76z"/>
		<path d="M295.78,65.53c2.56,0,5.12-0.02,7.68,0c3.45,0.03,6.55,2.4,7.31,5.56c0.81,3.37-0.72,6.74-3.78,8.32
			c-3.09,1.6-6.71,0.91-9.05-1.86c-1.7-2.02-3.31-4.12-4.88-6.25c-1.13-1.54-2.55-2.28-4.45-2.15c-0.43,0.03-0.87,0.03-1.3-0.01
			c-1.06-0.11-1.86-0.93-1.76-1.88c0.12-1.09,0.75-1.72,1.89-1.73c0.04,0,0.09,0,0.13,0C290.32,65.52,293.05,65.52,295.78,65.53z"/>
		<path d="M296.99,57.88c0-2.64,2.04-4.64,4.71-4.62c2.56,0.02,4.62,2.06,4.65,4.59c0.03,2.52-2.15,4.73-4.7,4.75
			C299.07,62.61,296.98,60.5,296.99,57.88z"/>
		<path d="M294.72,61.11c-0.01,1.44-1.14,2.57-2.54,2.56c-1.4-0.02-2.5-1.16-2.49-2.6c0.01-1.44,1.13-2.56,2.54-2.55
			C293.63,58.53,294.73,59.68,294.72,61.11z"/>
	</g>
</g>
<g id="Layer_2">
</g>
</svg>
