<?xml version="1.0" encoding="utf-8"?>
<!-- Generator: Adobe Illustrator 27.2.0, SVG Export Plug-In . SVG Version: 6.00 Build 0)  -->
<svg version="1.1" id="Layer_1" xmlns="http://www.w3.org/2000/svg" xmlns:xlink="http://www.w3.org/1999/xlink" x="0px" y="0px"
	 viewBox="0 0 576 288" style="enable-background:new 0 0 576 288;" xml:space="preserve">
<g>
	<path d="M50.78,8.1c2.17,2.95,4.33,5.91,6.53,8.85c16.46,22.02,37.58,38.26,62.04,50.5c15.57,7.79,31.42,14.91,47.71,21.06
		c0.64,0.24,1.28,0.51,2.01,0.8c-2.59,0.24-5.09,0.25-7.5,0.74c-8.1,1.66-13.07,7.51-13.88,16.01c-0.76,8.02-1.02,16.03,0,24.05
		c0.44,3.4,1.23,4.09,4.16,2.15c4.77-3.17,9.38-6.62,13.78-10.28c7.45-6.19,13.03-14.11,19.11-21.56c1.56-1.91,3.1-3.82,4.79-5.9
		c-0.61-0.38-1.18-0.74-1.76-1.08c-12.27-7.22-23.94-15.25-33.95-25.47c-5.78-5.9-10.86-12.32-14.04-20.04
		c-0.68-1.66-1.17-3.41-1.46-5.27c0.11,0.13,0.27,0.24,0.34,0.39c6.14,12.42,15.62,21.86,26.74,29.8
		c8.78,6.26,18.31,11.14,28.37,14.96c0.58,0.22,1.62,0.23,2-0.13c6-5.64,13.22-9.16,20.97-11.42c7.24-2.11,14.67-3.56,22.01-5.28
		c0.33-0.08,0.68-0.04,1.37-0.07c-5.48,1.36-10.66,2.43-15.71,3.95c-4.02,1.21-7.95,2.81-11.77,4.55c-1.98,0.9-3.83,2.31-5.41,3.84
		c-2.94,2.83-2.97,6.13,0.03,8.92c1.86,1.73,4.09,3.14,6.34,4.35c5.15,2.78,10.88,3.92,16.49,5.37c11.87,3.06,24.05,3.84,36.19,4.98
		c3.94,0.37,7.87,1.15,11.72,2.1c3.98,0.98,6.87,3.52,8.22,7.48c2.32,6.81,4.8,13.58,6.75,20.5c3.09,10.99,5.73,22.11,9.91,32.77
		c0.21,0.53,0.43,1.06,0.74,1.84c1.67-2.19,2.04-4.57,2.03-6.9c-0.01-6.51-0.18-13.01-0.39-19.51c-0.27-8.38-0.63-16.76-0.98-25.14
		c-0.05-1.11-0.3-2.2-0.46-3.31c-0.65-4.45-2.94-7.29-7.62-7.86c-1.02-0.13-2.02-0.47-3.02-0.93c4.29-0.24,8.58-0.44,12.87-0.73
		c15.16-1.06,30.3-2.35,45.01-6.37c4.71-1.29,9.27-3.25,13.72-5.3c2.05-0.95,3.87-2.66,5.39-4.38c1.97-2.25,1.88-4.82-0.23-6.99
		c-1.69-1.74-3.7-3.28-5.81-4.45c-6.79-3.74-14.25-5.59-21.74-7.32c-1.87-0.43-3.76-0.8-5.59-1.54c2.78,0.5,5.57,0.95,8.33,1.52
		c9.14,1.91,18.17,4.25,26.38,8.86c3.19,1.79,6.02,4.23,9.06,6.3c0.52,0.35,1.42,0.62,1.95,0.42c16.83-6.49,32.08-15.45,44.39-28.89
		c4.22-4.6,7.83-9.65,10.62-15.25c0.2-0.4,0.45-0.77,1.05-1.01c-0.72,2.08-1.31,4.22-2.17,6.24c-3.88,9.08-10.12,16.42-17.19,23.13
		c-8.76,8.32-18.64,15.14-29,21.31c-0.64,0.38-1.27,0.78-1.8,1.5c2.12-0.52,4.25-0.98,6.35-1.56c33.24-9.26,63.83-24.14,92.03-43.9
		c14.9-10.45,26.76-24,37.18-38.83c0.37-0.52,0.75-1.04,1.42-1.43c-0.25,0.52-0.47,1.05-0.74,1.55
		c-8.97,16.75-20.54,31.53-34.41,44.45c-6.86,6.39-14.29,12.17-21.18,18.53c-11.47,10.58-20.91,22.71-26.13,37.61
		c-1.98,5.66-3.18,11.6-4.42,17.53c0-1.45-0.01-2.9,0-4.35c0.02-1.52,0.11-3.05,0.07-4.57c-0.07-2.63,0.09-5.33-0.4-7.89
		c-2.14-11.21-13.25-18.62-24.78-16.71c-0.64,0.11-1.27,0.2-1.9,0.34c-10.63,2.38-15.5,11.66-11.63,22.31
		c0.7,1.91,1.63,3.78,2.74,5.49c4.81,7.36,11.11,13.16,18.9,17.24c6.63,3.48,10.88,2.67,16.01-2.74c0.06-0.06,0.21-0.05,0.26-0.06
		c0.18,4.31,0.22,8.63,0.57,12.93c1.3,16.26,7.18,30.8,16.72,43.94c7.23,9.96,16.27,18.1,25.52,26.09
		c16.54,14.28,30.32,30.83,39.94,50.6c1.27,2.62,2.35,5.33,3.22,8.19c-0.22-0.27-0.49-0.51-0.66-0.8
		c-19.97-32.91-49.26-54.25-84.6-68.04c-16.12-6.29-32.72-11.07-49.58-14.91c-0.16-0.04-0.34,0-0.83,0c0.7,0.48,1.19,0.82,1.67,1.15
		c5.64,3.9,11.46,7.57,16.87,11.76c10.88,8.42,19.17,18.9,23.82,32c1.35,3.81,2.17,7.74,2,12.26c-1.17-3.24-2.08-6.12-3.24-8.91
		c-4.45-10.7-10.79-20.07-20.27-26.91c-7.61-5.49-16.19-9.16-25.11-11.97c-0.59-0.19-1.64-0.07-2.01,0.33
		c-5.82,6.39-13.31,9.86-21.37,12.3c-5.96,1.8-12.07,2.82-18.66,3.3c4.72-1.61,9.17-2.87,13.4-4.66c4.24-1.79,8.33-3.99,12.33-6.28
		c1.57-0.9,2.9-2.39,4.02-3.86c1.85-2.42,1.81-5.01-0.28-7.21c-1.54-1.63-3.41-3.08-5.38-4.16c-6.85-3.75-14.36-5.68-21.93-7.27
		c-17.83-3.75-35.82-6.14-54.09-5.87c-0.38,0.01-0.76-0.07-1.17-0.12c0.08-0.22,0.08-0.36,0.15-0.4c5.15-2.63,4.78-7.21,3.64-11.62
		c-1.76-6.79-4.03-13.45-6.06-20.17c-2.37-7.84-4.64-15.72-7.15-23.52c-0.8-2.48-2.17-4.79-3.42-7.1c-0.54-1-1.44-1.8-2.57-3.16
		c-0.69,1.79-1.52,3.09-1.64,4.44c-0.44,4.84-0.92,9.7-0.88,14.54c0.07,8.15,0.38,16.3,0.88,24.43c0.2,3.24,0.99,6.49,1.87,9.64
		c1.58,5.65,4.69,10.2,10.31,12.93c-0.58,0.04-1.15,0.1-1.73,0.12c-12.2,0.38-24.36,1.2-36.39,3.38
		c-9.85,1.79-19.78,3.34-29.14,7.09c-3.23,1.3-6.43,2.91-9.27,4.91c-4.6,3.25-4.66,7.32-0.51,11.17c3.99,3.7,8.86,5.91,13.85,7.81
		c4.53,1.72,9.15,3.21,13.73,4.98c-2.84-0.37-5.7-0.66-8.52-1.14c-8.44-1.43-16.59-3.76-23.82-8.51c-2.43-1.59-4.62-3.6-6.74-5.6
		c-0.91-0.86-1.61-1.08-2.76-0.73c-23.81,7.16-40.59,21.58-47.68,46.05c-0.13,0.44-0.28,0.87-0.42,1.3
		c-0.17-0.03-0.34-0.05-0.51-0.08c0.38-2.64,0.59-5.32,1.17-7.91c1.36-6.07,4.09-11.57,7.4-16.8c6.87-10.84,16.27-19,27.08-25.69
		c3.09-1.91,6.17-3.83,9.24-5.74c0.02-0.13,0.09-0.27,0.05-0.35c-7.01-15.48-15.92-29.65-28.72-41.05
		c-2.74-2.44-5.78-4.59-8.87-6.57c-2.2-1.42-3.18-0.91-3.46,1.76c-0.42,4.01-0.76,8.07-0.62,12.09c0.19,5.32,0.44,10.71,1.46,15.91
		c2.33,11.87,10.58,18.53,23.07,19.31c0.5,0.03,1,0.07,1.79,0.13c-5.83,1.93-11.41,3.65-16.9,5.61
		c-19.52,6.97-38.44,15.25-55.89,26.58c-18.89,12.25-34.52,27.7-46.04,47.16c-0.51,0.86-1.07,1.68-1.62,2.51
		c-0.05,0.07-0.17,0.09-0.75,0.38c1.8-3.93,3.28-7.55,5.06-11.01c9.63-18.65,22.91-34.4,38.72-48.06
		c8.36-7.22,16.64-14.47,23.59-23.11c9.87-12.27,16.64-25.95,18.42-41.72c3.63-32.2-5.12-60.02-29.81-81.91
		c-6.18-5.48-12.81-10.46-19.03-15.9C73.61,44.52,60.83,28.61,51.45,10.04c-0.31-0.61-0.57-1.23-0.86-1.85
		C50.66,8.16,50.72,8.13,50.78,8.1z M372.1,153.98c-1.95-2.86-2.96-9.3-2.17-13.23c0.55-2.73,1.91-4.87,4.2-6.44
		c6.6-4.5,13.21-3.82,19.89-0.17c1.01,0.55,1.35,1.1,1.23,2.32c-0.79,8.37-0.87,16.75,0.56,25.08c1.37,7.93,3.73,15.52,8.78,21.96
		c5.33,6.81,12.19,10.68,21.08,10.29c4.49-0.2,7.57-2.65,8.87-6.95c0.91-3,0.86-6.05,0.15-9.04c-2.43-10.33-7.85-18.87-15.87-25.73
		c-3.6-3.08-7.59-5.72-11.17-8.84c-3.97-3.46-7.79-7.11-11.43-10.91c-4.39-4.58-6.45-10.53-8.9-16.24
		c-1.26-2.94-2.86-5.76-4.55-8.47c-1.14-1.82-2.96-2.94-5.18-3.32c-3.19-0.55-5.75,0.61-7.95,2.79c-3.37,3.34-5.42,7.5-6.91,11.91
		c-5.44,16.14-5.6,32.56-2.25,49.11c0.92,4.56,2.62,8.84,5.37,12.69c4.36,6.1,14.76,6.02,17.65-2.31c0.36-1.05,0.77-2.09,1.05-3.16
		c1.92-7.47,2.07-15.09,1.72-22.71c-0.16-3.48-0.8-6.97-1.54-10.39c-0.57-2.66-1.5-3.14-4.2-2.57c-1.21,0.26-2.41,0.91-3.43,1.64
		c-1.89,1.34-2.94,3.33-3.47,5.55C373.07,149.17,372.61,151.57,372.1,153.98z M218.24,147.59c0.18-0.02,0.35-0.04,0.53-0.06
		c-0.84-7.2-1.47-14.44-2.58-21.59c-0.92-5.91-2.63-11.68-5.6-16.92c-1.33-2.35-3.05-4.61-5.02-6.46c-2.46-2.31-4.78-2.23-7.46-0.18
		c-1.71,1.31-3.3,2.82-4.79,4.38c-2.8,2.92-5.41,6.01-8.25,8.89c-7.25,7.34-14.54,14.63-21.9,21.86c-1.13,1.11-1.23,1.88-0.27,3.05
		c1,1.22,1.83,2.58,2.81,3.82c6.84,8.63,13.7,17.25,20.57,25.86c2.85,3.57,5.69,7.15,8.63,10.66c2.27,2.71,4.8,5.07,8.76,4.61
		c2.93-0.35,5.54-1.61,7.13-4.04c1.75-2.66,3.38-5.51,4.38-8.51C217.9,164.75,218.12,156.16,218.24,147.59z M260.25,144.82
		c-0.34-5.08-0.52-10.18-1.06-15.24c-0.57-5.37-1.65-10.67-4.53-15.38c-4.56-7.44-13.14-7.91-18.55-1.07c-2.48,3.13-4,6.75-5,10.57
		c-3.55,13.55-3.82,27.18-0.93,40.9c0.96,4.53,2.17,8.92,5.56,12.28c1,0.99,2.33,2.07,3.63,2.26c2.68,0.38,5.48,0.44,8.17,0.16
		c2.75-0.29,4.97-1.96,6.18-4.45c1.65-3.41,3.3-6.87,4.39-10.48C260.02,158.01,260.06,151.41,260.25,144.82z M316.65,144.72
		c0,2.34-0.07,4.69,0.01,7.03c0.23,6.54,1.4,12.9,3.82,19.02c1.43,3.61,3.77,6.32,7.28,7.95c4.97,2.31,10.3,1.02,13.71-3.23
		c2.09-2.6,3.49-5.54,4.32-8.75c3.54-13.73,3.32-27.49,0.15-41.24c-1.09-4.71-2.76-9.21-5.97-12.96
		c-5.15-6.01-13.26-5.63-17.57,0.99c-1.44,2.22-2.51,4.78-3.27,7.33C316.82,128.64,316.57,136.68,316.65,144.72z"/>
</g>
</svg>
